<svg width="92" height="92" viewBox="0 0 92 92" fill="none" xmlns="http://www.w3.org/2000/svg">
<rect width="92" height="92" rx="46" fill="white"/>
<path d="M40.8213 60.3191L45.6955 27.1138H54.2253L58.7948 44.1734L68.2385 27.1138H76.7683L70.196 74.8894C102.028 47.1054 74.888 7.36138 48.4372 8.2264L49.3511 1.52441C97.7882 6.70322 105.709 71.286 60.318 88.3456L66.1061 44.1734L60.318 55.7496H54.2253L51.1789 44.1734L49.3511 60.3191H40.8213Z" fill="black" stroke="white" stroke-width="0.609272"/>
<path d="M39.6018 60.6238H31.072L32.9 47.829H23.1516L21.6284 60.6238H13.0986L17.6682 27.1138H26.198L24.3702 39.6039H34.1185L38.3834 8.83567C-16.4511 25.286 10.3569 97.4847 59.7079 81.9482L58.7938 89.2595C-12.4908 100.836 -17.6694 2.74296 47.827 1.52441L39.6018 60.6238Z" fill="#4169E1" stroke="white" stroke-width="0.609272"/>
</svg>
